<?xml version="1.0" encoding="UTF-8" standalone="no"?> <svg xmlns="http://www.w3.org/2000/svg" viewBox="0 0 512 512"><title>Letter</title><g id="Letter"><path d="M371.52,232.8H38.65V283h10V247.54L188.73,348.06a28,28,0,0,0,32.71,0l57.08-41L272.69,299l-57.08,41a18,18,0,0,1-21.05,0L59.19,242.8H351l-47.1,33.8,5.83,8.13,51.82-37.19V423L253.08,338.45l-6.15,7.88L352,428.25H58.19l105-81.92-6.15-7.88L48.65,423V302.24h-10v136H371.52Z"/><rect x="284.79" y="286.66" width="13.33" height="10" transform="translate(-115.39 224.64) rotate(-35.67)"/><rect x="261.09" y="137.75" width="26.48" height="10"/><rect x="287.57" y="177.81" width="144.61" height="10"/><rect x="261.09" y="205.3" width="171.09" height="10"/><rect x="389.67" y="232.8" width="42.51" height="10"/><rect x="304" y="137.75" width="42.64" height="10"/><rect x="389.67" y="356.08" width="42.51" height="10"/><rect x="389.67" y="379.41" width="42.51" height="10"/><path d="M205.44,118.26H187.62v-16.7a17.82,17.82,0,0,1,35.64,0V214.75h10V101.56a27.67,27.67,0,0,0-6.47-17.81H440.53c12.59,0,22.82,11.59,22.82,25.85V428.26H389.67v10h83.68V109.6c0-19.77-14.72-35.85-32.82-35.85H205.44a27.84,27.84,0,0,0-27.82,27.81v26.7h27.82Z"/></g></svg>