<?xml version="1.0" encoding="utf-8"?>
<!-- Generator: Adobe Illustrator 23.0.3, SVG Export Plug-In . SVG Version: 6.00 Build 0)  -->
<svg version="1.1" id="Layer_1" xmlns="http://www.w3.org/2000/svg" xmlns:xlink="http://www.w3.org/1999/xlink" x="0px" y="0px"
	 viewBox="0 0 50 50" style="enable-background:new 0 0 50 50;" xml:space="preserve">
<style type="text/css">
	.st0{fill:#2980B9;}
	.st1{fill:#037CC6;}
	.st2{fill:#9B59B6;}
	.st3{fill:#27AE60;}
	.st4{fill:#E74C3C;}
	.st5{fill:#34495E;}
	.st6{fill:#D35400;}
	.st7{fill:#E22D2D;}
	.st8{fill:#1ABC9C;}
	.st9{fill:#F39C12;}
	.st10{fill:#E67E22;}
	.st11{fill:url(#SVGID_1_);}
	.st12{fill:url(#SVGID_2_);}
	.st13{fill:url(#SVGID_3_);}
	.st14{fill:url(#SVGID_4_);}
	.st15{fill:url(#SVGID_5_);}
	.st16{fill:url(#SVGID_6_);}
	.st17{fill:url(#SVGID_7_);}
	.st18{fill:url(#SVGID_8_);}
	.st19{fill:url(#SVGID_9_);}
	.st20{fill:url(#SVGID_10_);}
	.st21{fill:url(#SVGID_11_);}
	.st22{fill:url(#SVGID_12_);}
	.st23{fill:url(#SVGID_13_);}
	.st24{fill:url(#SVGID_14_);}
	.st25{fill:url(#SVGID_15_);}
	.st26{fill:url(#SVGID_16_);}
	.st27{fill:url(#SVGID_17_);}
	.st28{fill:url(#SVGID_18_);}
	.st29{fill:url(#SVGID_19_);}
	.st30{fill:url(#SVGID_20_);}
	.st31{fill:url(#SVGID_21_);}
	.st32{fill:url(#SVGID_22_);}
	.st33{fill:url(#SVGID_23_);}
	.st34{fill:url(#SVGID_24_);}
	.st35{fill:url(#SVGID_25_);}
	.st36{fill:url(#SVGID_26_);}
	.st37{fill:url(#SVGID_27_);}
	.st38{fill:url(#SVGID_28_);}
	.st39{fill:url(#SVGID_29_);}
	.st40{fill:url(#SVGID_30_);}
	.st41{fill:url(#SVGID_31_);}
	.st42{fill:url(#SVGID_32_);}
	.st43{fill:#0C0C0C;}
	.st44{fill:none;stroke:#0C0C0C;stroke-width:2;stroke-linecap:round;stroke-linejoin:round;stroke-miterlimit:10;}
	.st45{fill:#FFFFFF;stroke:#0C0C0C;stroke-width:2;stroke-linecap:round;stroke-linejoin:round;stroke-miterlimit:10;}
	.st46{fill:#FB0101;}
	.st47{fill:url(#SVGID_33_);}
	.st48{fill:url(#SVGID_34_);}
	.st49{fill:#403D3D;}
	.st50{fill:#926DDE;}
	.st51{fill:#33CABB;}
</style>
<g>
	<g>
		<g>
			<path class="st43" d="M25.3,37.5c-7.5,0-15.5-5.4-19.5-8.6c-1-0.8-1.6-2-1.6-3.2s0.6-2.5,1.6-3.2c4.1-3.2,12-8.6,19.5-8.6
				s15.5,5.4,19.5,8.6c1,0.8,1.6,2,1.6,3.2s-0.6,2.5-1.6,3.2c-0.3,0.3-0.7,0.5-1.1,0.8c-0.4,0.3-1.1,0.2-1.4-0.2
				c-0.3-0.4-0.2-1.1,0.2-1.4c0.4-0.3,0.7-0.5,1-0.8c0.5-0.4,0.8-1,0.8-1.7s-0.3-1.3-0.8-1.7c-3.9-3-11.4-8.1-18.3-8.1S10.9,21,7,24
				c-0.5,0.4-0.8,1-0.8,1.7s0.3,1.3,0.8,1.7c3.9,3,11.4,8.1,18.3,8.1c0.9,0,1.9-0.1,2.9-0.3c0.5-0.1,1.1,0.3,1.2,0.8
				c0.1,0.5-0.3,1.1-0.8,1.2C27.5,37.4,26.4,37.5,25.3,37.5z"/>
			<path class="st43" d="M25.3,30.5c-2.7,0-4.8-2.2-4.8-4.8c0-2.7,2.2-4.8,4.8-4.8c0.4,0,0.7,0,1.1,0.1c0.5,0.1,0.9,0.7,0.8,1.2
				c-0.1,0.5-0.7,0.9-1.2,0.8c-0.2,0-0.4-0.1-0.6-0.1c-1.6,0-2.8,1.3-2.8,2.8c0,1.6,1.3,2.8,2.8,2.8s2.8-1.3,2.8-2.8
				c0-0.2,0-0.5-0.1-0.7c-0.1-0.5,0.2-1.1,0.7-1.2c0.5-0.1,1.1,0.2,1.2,0.7c0.1,0.4,0.1,0.8,0.1,1.2C30.2,28.3,28,30.5,25.3,30.5z"
				/>
		</g>
		<g>
			<path class="st43" d="M36.8,41c-3.3,0-6-2.7-6-6v-1.6c0-1.5,1.2-2.7,2.7-2.7h6.6c1.5,0,2.7,1.2,2.7,2.7V35
				C42.8,38.3,40.1,41,36.8,41z M33.4,32.8c-0.4,0-0.7,0.3-0.7,0.7V35c0,2.2,1.8,4,4,4s4-1.8,4-4v-1.6c0-0.4-0.3-0.7-0.7-0.7H33.4z"
				/>
			<path class="st43" d="M39.9,32.8c-0.6,0-1-0.4-1-1v-0.9c0-1.2-1-2.1-2.1-2.1c-1.2,0-2.1,1-2.1,2.1v0.9c0,0.6-0.4,1-1,1
				s-1-0.4-1-1v-0.9c0-2.3,1.8-4.1,4.1-4.1s4.1,1.8,4.1,4.1v0.9C40.9,32.3,40.4,32.8,39.9,32.8z"/>
			<path class="st43" d="M36.8,37.7c-0.6,0-1-0.4-1-1v-1.9c0-0.6,0.4-1,1-1s1,0.4,1,1v1.9C37.8,37.3,37.3,37.7,36.8,37.7z"/>
		</g>
	</g>
</g>
</svg>
