<svg id="Layer_1" data-name="Layer 1" xmlns="http://www.w3.org/2000/svg" viewBox="0 0 64 64"><path d="M31.316,52.194l1.415-1.414a1.5,1.5,0,0,1-2.122-2.122l8.839-8.838-4.25-.474a1.946,1.946,0,0,1-1.7-2.32,1.919,1.919,0,0,1,.538-.989,1.951,1.951,0,0,1,1.23-.566l8.054-.6a5.7,5.7,0,0,1,2.1.389l6.753-6.753,5.657,5.657L50.9,41.1a5.986,5.986,0,0,1-1.548,5.792l-8.839,8.838a1.5,1.5,0,0,1-2.122-2.121l-1.414,1.414A1.5,1.5,0,1,1,34.852,52.9l-1.414,1.414a1.5,1.5,0,0,1-2.122-2.121Z" style="fill: rgb(255, 255, 255);" id="id_101"></path><path d="M33.517,57.024,32.1,55.61a1.5,1.5,0,0,0,2.122-2.121L25.385,44.65l4.249-.474a1.946,1.946,0,0,0,1.7-2.319,1.922,1.922,0,0,0-.538-.99,1.961,1.961,0,0,0-1.23-.566l-8.054-.6a5.7,5.7,0,0,0-2.1.389l-6.753-6.753L7,38.993l6.937,6.937a5.985,5.985,0,0,0,1.548,5.791l8.839,8.839a1.5,1.5,0,0,0,2.121-2.121l1.415,1.414a1.5,1.5,0,1,0,2.121-2.122L31.4,59.146a1.5,1.5,0,1,0,2.122-2.122Z" style="fill: rgb(255, 255, 255);" id="id_102"></path><path d="M35.43,24a6.893,6.893,0,0,0-.2,1.57V26.7a3.287,3.287,0,0,1-.95,2.33A3.164,3.164,0,0,1,32,30a3.27,3.27,0,0,1-3.23-3.3v-.97A7.957,7.957,0,0,0,28.55,24Z" style="fill: rgb(0, 0, 0);" id="id_103"></path><path d="M39,15.15a7.259,7.259,0,0,1-1.59,4.54A11.346,11.346,0,0,0,35.43,24H28.55a10.768,10.768,0,0,0-1.92-4.26,7.244,7.244,0,0,1-1.59-5.35A6.994,6.994,0,0,1,39,15.15Z" style="fill: rgb(250, 104, 13);" id="id_104"></path><path d="M57.125,33.454l-6.937,6.937a1,1,0,0,0-.258.966,5,5,0,0,1-1.29,4.825L39.8,55.021a.5.5,0,0,1-.707-.708l1.27-1.27L44.4,49.016l0,0v0L42.982,47.6l-3.668,3.668-3.057,3.052a.479.479,0,0,1-.341.144h0a.486.486,0,0,1-.269-.091,2.508,2.508,0,0,0-.138-.666c.014-.023.015-.053.032-.072l.027-.032c.009-.011.02-.021.029-.033l6.682-6.682-1.414-1.414-6.621,6.621-.706-.7,6.621-6.621-1.414-1.414-6.621,6.62-.706-.7,8.741-8.742a1,1,0,0,0-.6-1.7l-4.257-.47a.95.95,0,0,1-.825-1.125.945.945,0,0,1,.268-.484.964.964,0,0,1,.6-.28l7.976-.6a4.793,4.793,0,0,1,1.734.32,1,1,0,0,0,1.073-.222l6.76-6.75L51.473,27.8l-6.325,6.315a6.643,6.643,0,0,0-1.9-.244l-8.059.6a2.966,2.966,0,0,0-1.854.859,2.929,2.929,0,0,0-.3,3.818,2.949,2.949,0,0,0,2.062,1.193l2.181.241L30,47.852l-2.439-2.439,2.178-.243a2.946,2.946,0,0,0-.1-5.866l-8.128-.6a6.9,6.9,0,0,0-1.829.245l-6.317-6.316L11.95,34.043,18.7,40.8a1,1,0,0,0,1.077.222,4.711,4.711,0,0,1,1.656-.321l8.051.6a.963.963,0,0,1,.6.276.924.924,0,0,1,.265.481.945.945,0,0,1-.829,1.127l-4.25.474a1,1,0,0,0-.595,1.7L33.517,54.2a.5.5,0,0,1-.707.708l-6.718-6.717L24.678,49.6,31.4,56.317l1.414,1.414a.5.5,0,0,1-.354.854.5.5,0,0,1-.353-.147l-1.415-1.414-6.717-6.717-1.414,1.414,6.716,6.717a.5.5,0,1,1-.707.708L21.85,52.428l-1.414,1.414,5.3,5.3a.5.5,0,0,1-.707.707l-8.839-8.839a5,5,0,0,1-1.29-4.825,1,1,0,0,0-.258-.966L7.707,38.286,6.293,39.7l6.548,6.549a7.008,7.008,0,0,0,1.937,6.179l8.839,8.839a2.5,2.5,0,0,0,3.535,0,2.462,2.462,0,0,0,.34-.43,2.477,2.477,0,0,0,3.536-.707A2.493,2.493,0,0,0,34.5,56.657a2.462,2.462,0,0,0,.43-.34c.013-.013.022-.029.035-.043a2.487,2.487,0,0,0,.947.187h.012a2.455,2.455,0,0,0,1.416-.455,2.459,2.459,0,0,0,.339.429,2.5,2.5,0,0,0,3.535,0L50.054,47.6a7.01,7.01,0,0,0,1.937-6.179l6.548-6.549Z" id="id_105" style="fill: rgb(0, 0, 0);"></path><path d="M24.043,14.29a8.2,8.2,0,0,0,1.818,6.081,9.974,9.974,0,0,1,1.909,5.36V26.7a4.231,4.231,0,1,0,8.46,0V25.57a9.986,9.986,0,0,1,1.956-5.256A8.254,8.254,0,0,0,37.272,9.02a7.841,7.841,0,0,0-6.183-1.968A8.092,8.092,0,0,0,24.043,14.29ZM34.23,25.57V26.7a2.231,2.231,0,1,1-4.46,0v-.969c0-.233-.018-.48-.042-.731h4.537C34.248,25.194,34.23,25.389,34.23,25.57ZM31.313,9.039A6.2,6.2,0,0,1,32,9a5.852,5.852,0,0,1,3.935,1.513,6.253,6.253,0,0,1,.69,8.547A12.015,12.015,0,0,0,34.66,23H29.329a11.42,11.42,0,0,0-1.923-3.9,6.224,6.224,0,0,1-1.373-4.611A6.08,6.08,0,0,1,31.313,9.039Z" id="id_106"></path><rect x="31" y="2" width="2" height="3" id="id_107"></rect><rect x="40.298" y="8.493" width="3.162" height="2" transform="translate(0.176 19.731) rotate(-26.565)" id="id_108" style="fill: rgb(0, 0, 0);"></rect><rect x="41.586" y="17.105" width="2" height="3.162" transform="translate(6.828 48.419) rotate(-63.435)" id="id_109"></rect><rect x="21.121" y="7.912" width="2" height="3.162" transform="translate(3.737 25.033) rotate(-63.435)" id="id_110" style="fill: rgb(0, 0, 0);"></rect><rect x="19.833" y="17.685" width="3.162" height="2" transform="translate(-6.096 11.549) rotate(-26.565)" id="id_111" style="fill: rgb(0, 0, 0);"></rect><path d="M32.5,18h-1a.5.5,0,0,1-.5-.5H29a2.5,2.5,0,0,0,2,2.449V21h2V19.949A2.5,2.5,0,0,0,32.5,15h-1a.5.5,0,0,1,0-1h1a.5.5,0,0,1,.5.5h2a2.5,2.5,0,0,0-2-2.449V11H31v1.051A2.5,2.5,0,0,0,31.5,17h1a.5.5,0,0,1,0,1Z" id="id_112" style="fill: rgb(255, 255, 255);"></path></svg>